ffmpeg version 3.4.8-0ubuntu0.2 Copyright (c) 2000-2020 the FFmpeg developers
  built with gcc 7 (Ubuntu 7.5.0-3ubuntu1~18.04)
  configuration: --prefix=/usr --extra-version=0ubuntu0.2 --toolchain=hardened --libdir=/usr/lib/x86_64-linux-gnu --incdir=/usr/include/x86_64-linux-gnu --enable-gpl --disable-stripping --enable-avresample --enable-avisynth --enable-gnutls --enable-ladspa --enable-libass --enable-libbluray --enable-libbs2b --enable-libcaca --enable-libcdio --enable-libflite --enable-libfontconfig --enable-libfreetype --enable-libfribidi --enable-libgme --enable-libgsm --enable-libmp3lame --enable-libmysofa --enable-libopenjpeg --enable-libopenmpt --enable-libopus --enable-libpulse --enable-librubberband --enable-librsvg --enable-libshine --enable-libsnappy --enable-libsoxr --enable-libspeex --enable-libssh --enable-libtheora --enable-libtwolame --enable-libvorbis --enable-libvpx --enable-libwavpack --enable-libwebp --enable-libx265 --enable-libxml2 --enable-libxvid --enable-libzmq --enable-libzvbi --enable-omx --enable-openal --enable-opengl --enable-sdl2 --enable-libdc1394 --enable-libdrm --enable-libiec61883 --enable-chromaprint --enable-frei0r --enable-libopencv --enable-libx264 --enable-shared
  libavutil      55. 78.100 / 55. 78.100
  libavcodec     57.107.100 / 57.107.100
  libavformat    57. 83.100 / 57. 83.100
  libavdevice    57. 10.100 / 57. 10.100
  libavfilter     6.107.100 /  6.107.100
  libavresample   3.  7.  0 /  3.  7.  0
  libswscale      4.  8.100 /  4.  8.100
  libswresample   2.  9.100 /  2.  9.100
  libpostproc    54.  7.100 / 54.  7.100
[rawvideo @ 0x563ec9c20a20] Estimating duration from bitrate, this may be inaccurate
Input #0, rawvideo, from '../../SVC-Encoder-20220109T061506Z-001/SVC-Encoder/Dataset/RollerCoaster/ERP_8x8/tile_yuv/Tile_36_480x240.yuv':
  Duration: 00:00:10.00, start: 0.000000, bitrate: 41472 kb/s
    Stream #0:0: Video: rawvideo (I420 / 0x30323449), yuv420p, 480x240, 41472 kb/s, 30 tbr, 30 tbn, 30 tbc
Stream mapping:
  Stream #0:0 -> #0:0 (rawvideo (native) -> h264 (libx264))
Press [q] to stop, [?] for help
[libx264 @ 0x563ec9c2dc60] using cpu capabilities: MMX2 SSE2Fast LZCNT SSSE3 SSE4.2 AVX
[libx264 @ 0x563ec9c2dc60] profile High, level 2.1
Output #0, rawvideo, to 'RollerCoaster_Tile_36_480x240_x264_QP_28.h264':
  Metadata:
    encoder         : Lavf57.83.100
    Stream #0:0: Video: h264 (libx264), yuv420p, 480x240, q=-1--1, 30 fps, 30 tbn, 30 tbc
    Metadata:
      encoder         : Lavc57.107.100 libx264
    Side data:
      cpb: bitrate max/min/avg: 0/0/0 buffer size: 0 vbv_delay: -1
frame=  159 fps=0.0 q=34.0 PSNR=Y:nan U:nan V:nan *:nan size=     110kB time=00:00:03.86 bitrate= 232.6kbits/s speed=7.65x    frame=  300 fps=286 q=34.0 LPSNR=Y:inf U:inf V:inf *:inf size=     264kB time=00:00:09.93 bitrate= 218.1kbits/s speed=9.47x    
video:264kB audio:0kB subtitle:0kB other streams:0kB global headers:0kB muxing overhead: 0.000000%
[libx264 @ 0x563ec9c2dc60] frame I:2     Avg QP:26.68  size:  9450  PSNR Mean Y:41.93 U:44.76 V:47.82 Avg:42.92 Global:42.87
[libx264 @ 0x563ec9c2dc60] frame P:76    Avg QP:27.74  size:  2255  PSNR Mean Y:39.32 U:44.45 V:47.62 Avg:40.61 Global:40.57
[libx264 @ 0x563ec9c2dc60] frame B:222   Avg QP:33.42  size:   363  PSNR Mean Y:38.93 U:44.37 V:47.60 Avg:40.25 Global:40.22
[libx264 @ 0x563ec9c2dc60] consecutive B-frames:  1.0%  0.7%  1.0% 97.3%
[libx264 @ 0x563ec9c2dc60] mb I  I16..4: 19.6% 49.1% 31.3%
[libx264 @ 0x563ec9c2dc60] mb P  I16..4:  2.0%  2.4%  0.3%  P16..4: 30.0% 20.5%  9.1%  0.0%  0.0%    skip:35.7%
[libx264 @ 0x563ec9c2dc60] mb B  I16..4:  0.0%  0.0%  0.0%  B16..8: 34.2%  5.3%  0.2%  direct: 0.2%  skip:60.1%  L0:39.9% L1:50.0% BI:10.0%
[libx264 @ 0x563ec9c2dc60] 8x8 transform intra:50.8% inter:66.7%
[libx264 @ 0x563ec9c2dc60] coded y,uvDC,uvAC intra: 31.5% 47.4% 23.9% inter: 7.4% 7.0% 0.1%
[libx264 @ 0x563ec9c2dc60] i16 v,h,dc,p: 20% 33% 28% 20%
[libx264 @ 0x563ec9c2dc60] i8 v,h,dc,ddl,ddr,vr,hd,vl,hu: 11% 12% 55%  1%  3%  7%  6%  1%  4%
[libx264 @ 0x563ec9c2dc60] i4 v,h,dc,ddl,ddr,vr,hd,vl,hu: 16% 15% 15%  2% 14% 15% 15%  2%  4%
[libx264 @ 0x563ec9c2dc60] i8c dc,h,v,p: 60% 18% 17%  5%
[libx264 @ 0x563ec9c2dc60] Weighted P-Frames: Y:0.0% UV:0.0%
[libx264 @ 0x563ec9c2dc60] ref P L0: 62.4% 19.4% 14.7%  3.5%
[libx264 @ 0x563ec9c2dc60] ref B L0: 91.8%  7.1%  1.1%
[libx264 @ 0x563ec9c2dc60] ref B L1: 94.5%  5.5%
[libx264 @ 0x563ec9c2dc60] PSNR Mean Y:39.049 U:44.391 V:47.609 Avg:40.362 Global:40.320 kb/s:216.65
